# xmcd
#
# Track frame offsets:
#	150
#	13626
#	23993
#	36111
#	49468
#	61123
#	73054
#	85818
#	95957
#	109885
#
# Disc length: 1628 seconds
#
# Revision: 1
# Processed by: cddbd v1.5.2PL0 Copyright (c) Steve Scherf et al.
# Submitted via: audiograbber 1.83.01
#
DISCID=88065a0a
DTITLE=Don Williams - Don Williams III
DYEAR=1900
DGENRE=
TTITLE0=01 I Wouldn't Want To Live If You Don't Love Me
TTITLE1=02 Fly Away
TTITLE2=03 Ghost Story
TTITLE3=04 Good-bye Ian't Really Good At All
TTITLE4=05 Such A Lovely Lady
TTITLE5=06 The Ties That Bind
TTITLE6=07 When Will I Ever Learn
TTITLE7=08 Why Lord Goodbye
TTITLE8=09 I've Turned you To Stone
TTITLE9=10 Lovin' Understanding Man
EXTD=
EXTT0=
EXTT1=
EXTT2=
EXTT3=
EXTT4=
EXTT5=
EXTT6=
EXTT7=
EXTT8=
EXTT9=
PLAYORDER=
